<?xml version="1.0"?><svg width="640" height="480" xmlns="http://www.w3.org/2000/svg">
 <!-- Created with SVG-edit - http://svg-edit.googlecode.com/ -->
 <title>pastel rainbow</title>
 <g>
  <title>Layer 1</title>
  <path fill="#ffaaff" stroke="#000000" stroke-width="2" stroke-dasharray="null" stroke-linejoin="null" stroke-linecap="null" d="m1.99999,477c-2.99999,-471 638.00001,-475 636.00001,0l-28,0c0.333374,-436 -578.6667,-436.999969 -579.00001,0l-29,0z" id="svg_1"/>
  <path fill="#ffd4aa" stroke="#000000" stroke-width="2" stroke-dasharray="null" stroke-linejoin="null" stroke-linecap="null" d="m29,477c0.33333,-436.66666 580.666687,-436.66666 581,0l-31,0c1.666626,-397.666718 -518,-397.333366 -519,0l-31,0z" id="svg_2"/>
  <path fill="#ffffaa" stroke="#000000" stroke-width="2" stroke-dasharray="null" stroke-linejoin="null" stroke-linecap="null" d="m60.333328,477.333313c0.000023,-397 520.33342,-398.333313 518.666672,-0.666656l-29,0c0.333557,-357 -459.333359,-356.666748 -458.999977,0l-30.666683,0.666656l-0.000011,0z" id="svg_3"/>
  <path fill="#d4ffaa" stroke="#000000" stroke-width="2" stroke-dasharray="null" stroke-linejoin="null" stroke-linecap="null" d="m92,476.666504c-1.111107,-358.000061 459.111511,-358.000153 458.000244,0.000031l-28.667358,0.666718c-1.555054,-317.333313 -400.443962,-315.333282 -399.332855,0.000031l-30.000023,-0.666779l-0.000008,0z" id="svg_4"/>
  <path fill="#aaffff" stroke="#000000" stroke-width="2" stroke-dasharray="null" stroke-linejoin="null" stroke-linecap="null" d="m122,477.333008c-1.333,-316.000015 398.666016,-315.333008 399.333008,0l-31.998993,0c0.665985,-277.333008 -338.667007,-274.000015 -339.334015,0l-28,0l0,0z" id="svg_5"/>
  <path fill="#aaaaff" stroke="#000000" stroke-width="2" stroke-dasharray="null" stroke-linejoin="null" stroke-linecap="null" d="m150.000031,477.333405c1.110931,-277.333252 339.555603,-275.333588 339.333191,-0.000244l-29.333221,0.000031c0.222656,-235.332947 -278.888977,-237.333542 -280,-0.000061l-29.999954,0.000275l-0.000015,0z" id="svg_6"/>
  <path fill="#d4aaff" stroke="#000000" stroke-width="2" stroke-dasharray="null" stroke-linejoin="null" stroke-linecap="null" d="m180.333359,478.333282c1.111023,-237.333206 280.22258,-236.666382 280.666824,0.000183l-32,-0.000061c1.555298,-198.000183 -216.888901,-199.999878 -216.000214,0.666504l-32.666595,-0.666626l-0.000015,0z" id="svg_7"/>
  <path fill="#ffffff" stroke="#000000" stroke-width="2" stroke-dasharray="null" stroke-linejoin="null" stroke-linecap="null" d="m-29.333269,491.333344c-40.666723,-15.510132 -12.999163,-86.34314 30.751319,-70.799286c-18.91619,-57.789154 61.583781,-76.53421 103.248622,-29.867371c53.664734,-44.666748 107.498169,-11.255066 103.248627,29.867371c47.750351,-5.544189 73.417953,39.955872 42.751389,72.132599c35.999939,23.510223 -6.334305,77.676727 -42.751389,72.132599c2.249542,37.789124 -64.917114,61.200684 -103.248627,29.867432c-34.998123,26.666565 -84.164791,-4.744995 -85.915253,-41.867371c-47.083769,16.877686 -68.751438,-15.955994 -48.084688,-61.465973z" id="svg_8" transform="rotate(-0.109957 107.592 486.802)"/>
  <path fill="#ffffff" stroke="#000000" stroke-width="2" stroke-dasharray="null" stroke-linejoin="null" stroke-linecap="null" d="m399.982422,485.991333c-40.666718,-15.510162 -12.999146,-86.34317 30.751343,-70.799316c-18.916199,-57.789185 61.583771,-76.534241 103.248596,-29.867371c53.664734,-44.666779 107.498169,-11.255066 103.248657,29.867371c47.750366,-5.544189 73.417908,39.955872 42.751343,72.132629c36,23.510193 -6.33429,77.676697 -42.751343,72.132568c2.249512,37.789124 -64.917114,61.200623 -103.248657,29.867432c-34.998138,26.666565 -84.164764,-4.744995 -85.915222,-41.867371c-47.083771,16.877686 -68.751465,-15.955994 -48.084717,-61.465942z" transform="rotate(-0.109957 536.908 481.46)" id="svg_10"/>
 </g>
</svg>